<svg width="350" height="350" viewBox="0 0 350 350" fill="none" xmlns="http://www.w3.org/2000/svg">
<g clip-path="url(#clip0_20008_25072)">
<path d="M139.882 136.409C139.882 136.409 119.897 125.325 114.658 118.953C109.418 112.582 108.67 134.664 114.882 139.028C121.17 143.305 139.882 136.409 139.882 136.409Z" fill="white"/>
<path d="M141.23 135.973C136.888 133.529 132.547 130.998 128.355 128.205C125.287 126.285 122.293 124.103 119.448 121.834C118.4 120.961 117.352 120.001 116.379 118.953C115.331 117.732 113.984 116.946 112.487 117.033C111.439 116.859 110.391 117.382 109.793 118.342C109.269 119.39 108.894 120.524 108.745 121.746C108.296 125.063 108.52 128.467 109.269 131.696C109.942 134.751 111.14 137.893 113.535 139.464C116.454 141.384 120.272 141.384 123.565 141.21C129.403 140.686 135.167 139.377 140.781 137.282L141.08 137.195C141.829 136.846 141.903 136.409 141.23 135.973C140.406 135.537 139.508 135.362 138.61 135.624C134.344 137.195 129.927 138.417 125.436 139.115C123.939 139.377 122.367 139.552 120.87 139.552C120.272 139.552 119.673 139.552 119.074 139.464C118.55 139.377 118.101 139.29 117.577 139.202C116.679 138.941 115.855 138.33 115.257 137.457C114.508 136.322 113.909 135.1 113.535 133.704C112.637 130.649 112.263 127.42 112.412 124.19C112.412 122.881 112.637 121.572 112.936 120.35C113.011 119.914 113.236 119.564 113.385 119.128C113.46 118.953 113.61 118.779 113.685 118.604C113.834 118.43 113.984 118.342 113.984 118.342C113.909 118.255 114.508 118.43 113.909 118.342C113.61 118.342 113.311 118.43 113.011 118.342C113.086 118.342 112.188 118.168 112.188 118.168C112.188 118.168 112.487 118.43 112.263 118.168C112.637 118.517 113.011 118.953 113.385 119.39C114.284 120.35 115.257 121.31 116.305 122.096C118.999 124.278 121.843 126.372 124.763 128.205C129.254 131.173 133.82 133.966 138.46 136.497C139.284 136.933 140.182 137.02 141.08 136.846C141.829 136.846 141.903 136.322 141.23 135.973Z" fill="#000005"/>
<path d="M119.299 139.115C119.299 139.115 99.3134 128.031 94.0739 121.659C88.8344 115.288 88.0859 137.37 94.2985 141.734C100.511 146.098 119.299 139.115 119.299 139.115Z" fill="white"/>
<path d="M120.346 137.457C116.005 135.1 111.813 132.482 107.622 129.776C104.478 127.856 101.484 125.674 98.5647 123.317C97.5168 122.445 96.5438 121.572 95.6456 120.524C94.7474 119.564 93.7743 118.604 92.5019 118.604C89.7324 118.604 88.6845 122.096 88.3102 124.714C87.8611 128.118 88.0108 131.609 88.7593 134.926C89.433 138.155 90.7055 141.559 93.1755 143.479C95.6456 145.399 99.3133 145.399 102.232 145.138C108.146 144.614 113.984 143.217 119.598 141.035C120.571 140.773 121.17 139.726 121.095 138.591C120.87 137.544 119.972 136.933 119.074 137.195H118.999C114.732 138.766 110.391 139.988 105.975 140.686C104.328 140.948 102.607 141.123 100.96 141.123C99.6875 141.21 98.3402 141.035 97.0677 140.686C96.8432 140.599 96.6186 140.512 96.3941 140.512C96.0947 140.424 95.8701 140.25 95.5707 140.075C95.4959 139.988 94.8971 139.552 95.1965 139.813C94.8971 139.552 94.6725 139.29 94.448 139.028C94.3731 138.941 94.2234 138.766 94.1486 138.679C93.8492 138.242 94.2234 138.853 94.0737 138.591C93.924 138.33 93.7743 138.068 93.6246 137.719C93.3252 137.02 93.0258 136.409 92.8013 135.624C92.7264 135.362 92.5767 135.013 92.5767 134.751C92.5019 134.402 92.3522 133.966 92.2773 133.529C92.1276 132.744 91.9779 131.871 91.8282 131.085C91.6037 129.602 91.5288 128.205 91.6037 126.721C91.6037 126.023 91.6785 125.238 91.7534 124.539C91.7534 124.278 91.8282 124.016 91.9031 123.754C91.9779 123.23 91.8282 124.103 91.9031 123.667C91.9779 123.492 91.9779 123.317 92.0528 123.143C92.1276 122.968 92.2025 122.706 92.2773 122.532C92.3522 122.357 92.5019 122.008 92.2773 122.532C92.3522 122.445 92.427 122.357 92.427 122.27C92.427 122.183 92.5767 122.096 92.5767 122.008C92.427 122.445 92.3522 122.27 92.5019 122.096C92.6516 121.921 92.0528 122.445 92.3522 122.183C92.5019 122.096 92.7264 122.096 92.2025 122.27C92.3522 122.183 92.5767 122.27 92.0528 122.27C92.2773 122.27 92.2773 122.357 91.9031 122.27C92.0528 122.357 92.2773 122.445 91.8282 122.183C91.9031 122.27 91.9779 122.27 92.0528 122.357C92.1276 122.357 92.2025 122.445 92.2025 122.445C91.8282 122.183 92.1276 122.357 92.2025 122.445C92.427 122.706 92.6516 122.968 92.8761 123.23C93.7743 124.19 94.7474 125.15 95.7204 125.936C98.415 128.205 101.259 130.387 104.253 132.307C108.819 135.362 113.46 138.155 118.176 140.774C119.074 141.21 120.122 140.948 120.72 139.988C121.244 139.202 121.095 138.155 120.496 137.544C120.496 137.544 120.421 137.457 120.346 137.457Z" fill="#000005"/>
<path d="M63.9841 172.369C63.9841 172.369 84.0441 141.646 87.4123 141.21C90.7806 140.773 172.517 129.514 185.841 131.26C199.164 133.006 230.077 154.215 230.077 154.215L63.9841 172.369Z" fill="white"/>
<path d="M65.7806 171.671C68.5501 167.394 71.4692 163.117 74.3135 158.928C76.6339 155.524 79.0291 152.207 81.4243 148.978C83.2208 146.359 85.2417 144.003 87.3375 141.821C87.6369 141.559 87.9363 141.297 88.2357 141.035C88.0112 141.123 88.3106 141.035 88.2357 141.035C87.5621 141.384 86.8884 141.646 86.2148 141.821C85.6908 141.995 85.9154 141.908 86.0651 141.821C86.4393 141.821 86.8136 141.734 87.1878 141.646L91.8286 141.035C97.4423 140.25 103.056 139.552 108.67 138.853C116.23 137.893 123.79 136.933 131.35 136.06C139.284 135.1 147.143 134.227 155.077 133.442C161.664 132.831 168.176 132.22 174.763 131.871C179.179 131.696 183.446 131.435 187.787 132.656C195.796 135.013 203.431 139.377 210.691 143.654C216.38 146.97 221.919 150.462 227.458 154.215L228.281 154.826L231.499 153.342L227.008 153.866L214.958 155.175L197.068 157.095L175.287 159.451L151.41 162.07L127.233 164.688L104.778 167.132L85.7657 169.227L72.1429 170.711C69.9722 170.972 67.8016 171.147 65.6309 171.409H65.3315C64.5081 171.496 63.6848 171.845 62.8614 172.282C62.7117 172.369 61.589 173.067 62.3375 172.98L66.8285 172.456L78.9543 171.147L96.8435 169.227L118.625 166.87L142.502 164.252L166.679 161.633L189.134 159.19L208.071 157.182L221.694 155.698C223.865 155.437 226.035 155.262 228.131 155H228.431C229.179 154.913 229.853 154.651 230.452 154.215C230.526 154.127 231.724 153.429 231.649 153.342C227.607 150.549 223.416 147.93 219.299 145.312C211.664 140.599 203.88 136.06 195.646 132.744C192.727 131.435 189.733 130.649 186.664 130.213C184.718 130.038 182.772 130.125 180.826 130.125C174.688 130.3 168.475 130.824 162.338 131.435C154.404 132.133 146.544 133.006 138.61 133.966C130.676 134.926 122.817 135.799 114.957 136.846C108.82 137.631 102.682 138.417 96.5441 139.202L90.9303 139.988C89.8076 140.075 88.7597 140.25 87.6369 140.512C85.0172 141.384 83.2207 143.305 81.3495 145.574C78.9543 148.454 76.7088 151.509 74.4632 154.651C70.4213 160.324 66.5291 165.998 62.7117 171.845L62.0381 172.893C61.8135 173.242 63.3105 172.805 63.3854 172.805C64.2087 172.631 65.3315 172.369 65.7806 171.671Z" fill="#000005"/>
<path d="M37.487 216.62L50.4362 189.476C50.4362 189.476 35.5409 186.857 35.2415 183.803C34.9421 180.748 36.514 171.758 36.514 171.758C36.514 171.758 46.4691 168.441 104.628 159.102C162.787 149.763 274.314 144.788 298.042 166.259L153.805 193.316L136.365 216.969L37.487 216.62Z" fill="white"/>
<path d="M38.9839 218.017L50.2863 194.276L51.9331 190.872C52.5319 189.65 51.4091 187.818 50.3612 187.643C46.2444 187.032 42.2025 185.985 38.3103 184.414C37.7863 184.152 37.3372 183.977 36.8133 183.628L36.5139 183.454C36.6636 183.541 36.6636 183.541 36.5139 183.454C36.3642 183.366 36.5139 183.454 36.6636 183.715C36.8133 183.977 36.8133 184.501 36.8133 183.89C36.8133 183.628 36.8133 183.366 36.8133 183.104C36.8133 182.319 36.8881 181.533 36.963 180.748C37.2624 178.042 37.6366 175.336 38.0857 172.718L37.4121 173.678C42.8013 171.845 48.4899 171.06 53.954 170.012C63.6097 168.092 73.3403 166.434 83.0708 164.776C94.8972 162.768 106.724 160.761 118.625 159.19C140.331 156.309 162.263 154.564 184.119 153.691C206.125 152.818 228.281 152.731 250.287 154.738C259.119 155.437 267.802 156.833 276.484 158.753C282.772 160.237 289.134 162.07 294.673 165.736C295.571 166.347 296.47 166.958 297.293 167.743L297.368 164.339L284.718 166.696L253.954 172.456L215.406 179.701L179.478 186.421L156.499 190.698C155.376 190.872 154.254 191.047 153.131 191.309C151.858 191.658 150.811 193.753 150.062 194.887L144.224 202.742L138.161 210.947L136.065 213.74C135.84 214.002 135.017 214.787 135.017 215.136C135.017 214.874 135.99 215.049 135.466 214.874C135.167 214.874 134.867 214.874 134.643 214.874H131.275L101.334 214.787L62.6367 214.7L38.0857 214.613H36.8881C34.7923 214.613 36.2893 218.453 37.936 218.54L55.6007 218.627L92.9511 218.715L127.083 218.802H135.766C136.364 218.889 136.888 218.802 137.412 218.453C137.787 218.017 138.086 217.667 138.385 217.144L140.406 214.438L152.308 198.291L154.179 195.76C154.403 195.498 154.553 195.324 154.703 195.062C155.002 194.364 154.703 195.411 154.254 195.062C154.403 195.149 155.002 194.887 155.152 194.887L173.49 191.483L207.098 185.199L246.095 177.868L279.703 171.583L297.667 168.18L298.49 168.005C300.062 167.743 299.538 165.474 298.565 164.601C293.85 160.324 287.787 158.055 282.098 156.309C273.94 153.953 265.631 152.294 257.248 151.422C235.766 148.716 213.984 148.541 192.353 149.152C169.823 149.763 147.293 151.334 124.837 154.04C102.457 156.746 80.2265 160.673 58.0708 164.863C52.3822 165.91 46.6935 167.045 41.0049 168.354C39.2085 168.616 37.4121 169.052 35.6157 169.663C35.5408 169.663 35.5408 169.663 35.466 169.751C35.0917 169.925 34.8672 170.274 34.7923 170.711C34.4181 172.893 34.0438 174.987 33.8192 177.169C33.5198 179.526 32.8462 182.93 34.1187 184.937C35.3163 186.857 37.4869 187.643 39.3582 188.341C41.6037 189.127 43.8492 189.825 46.1696 190.261C47.5917 190.611 49.0139 190.872 50.5109 191.134L48.939 187.905L37.5618 211.732L36.0648 215.311C35.2414 217.056 38.0109 219.937 38.9839 218.017Z" fill="#000005"/>
<path d="M27.6816 216.184L30.8253 206.845L28.0559 209.201L39.8074 207.456L68.1009 203.528L102.308 198.728L131.948 194.625C136.664 193.927 141.529 193.491 146.245 192.618H146.469C147.293 192.356 148.116 191.832 148.715 191.134C148.939 190.872 149.688 190 148.939 190.087L137.113 191.658L108.82 195.586L74.6129 200.386L45.0469 204.488C40.3314 205.186 35.4661 205.623 30.7505 206.496H30.5259C29.3283 206.757 28.3553 207.63 27.7565 208.852L24.6128 218.278C24.3882 218.889 25.9601 218.017 26.0349 217.929C26.6337 217.667 27.2325 216.969 27.6816 216.184Z" fill="#000005"/>
<path d="M58.5199 212.78L60.0169 204.75C60.0918 204.401 59.7924 204.139 59.5678 204.052C59.1936 203.964 58.7445 203.964 58.3702 204.052C57.6217 204.313 56.6487 204.837 56.499 205.797L55.002 213.827C54.9271 214.176 55.2265 214.438 55.4511 214.525C55.8253 214.613 56.2744 214.613 56.6487 214.525C57.3972 214.351 58.3702 213.827 58.5199 212.78Z" fill="#000005"/>
<path d="M78.8045 212.518C79.4782 209.201 80.3764 205.972 81.574 202.83C81.6488 202.655 81.4243 202.306 81.3494 202.219C81.1249 201.782 80.9003 201.346 80.6009 200.91C80.3015 200.473 80.077 200.124 79.7027 199.775C79.6279 199.775 79.2536 199.339 79.2536 199.426C78.056 202.568 77.1578 205.797 76.4841 209.114C76.4841 209.288 76.6338 209.55 76.7087 209.725C76.9332 210.161 77.1578 210.598 77.4572 211.034C77.7566 211.47 77.9811 211.82 78.3554 212.169C78.3554 212.081 78.8045 212.605 78.8045 212.518Z" fill="#000005"/>
<path d="M101.035 206.845C101.783 204.314 102.981 201.957 102.981 199.251C102.981 198.728 102.831 198.291 102.532 197.942C102.158 197.593 101.708 197.418 101.259 197.418C100.735 197.418 100.286 197.593 99.9121 197.942C99.5378 198.204 99.3133 198.728 99.3133 199.251C99.3133 200.037 99.2384 200.735 99.0887 201.521L99.1636 201.084C98.7893 202.83 98.0408 204.314 97.5169 205.972C97.2923 206.845 97.6666 207.805 98.4151 208.067C98.4899 208.067 98.5648 208.154 98.6396 208.154C99.6127 208.416 100.586 207.892 101.035 206.845Z" fill="#000005"/>
<path d="M71.8434 195.76C75.6052 195.76 78.6548 192.204 78.6548 187.818C78.6548 183.431 75.6052 179.875 71.8434 179.875C68.0816 179.875 65.032 183.431 65.032 187.818C65.032 192.204 68.0816 195.76 71.8434 195.76Z" fill="white"/>
<path d="M76.7834 188.254C76.7834 189.738 76.4092 191.134 75.7355 192.356C75.5858 192.618 75.4361 192.792 75.2864 193.054C75.1367 193.229 74.8373 193.578 74.8373 193.578C74.8373 193.578 74.6876 193.753 74.5379 193.84C74.3882 193.927 74.014 194.189 74.3134 194.014L74.014 194.189C73.7894 194.276 73.7894 194.276 74.014 194.189L73.7894 194.276C73.7146 194.276 73.3403 194.451 73.6397 194.364L73.1906 194.451C72.8912 194.538 73.5649 194.451 73.0409 194.451H72.5918C72.0679 194.451 71.5439 194.364 71.0948 194.102C67.8762 192.793 66.0798 188.69 67.2026 184.85C67.2774 184.501 67.4271 184.152 67.5768 183.803C67.8014 183.279 68.1756 182.755 68.5499 182.319C68.9242 181.882 69.2984 181.621 69.7475 181.359C69.2984 181.621 70.4212 181.097 69.9721 181.272L70.3463 181.184C70.9451 181.01 70.1966 181.184 70.496 181.184C71.0948 181.097 71.6936 181.184 72.2176 181.359C74.9122 182.232 76.7086 185.025 76.7834 188.254C76.7834 189.214 77.8314 189.127 78.3553 189.039C78.8793 188.952 80.3014 188.341 80.3014 187.468C80.3014 183.715 78.2056 180.399 75.2116 179.177C71.5439 177.955 67.6517 179.177 65.1068 182.493C62.9361 185.374 62.5619 189.476 64.2086 192.793C66.0798 196.109 69.5978 197.68 72.9661 196.72C76.8583 195.76 80.3014 192.182 80.3014 187.381C80.3763 185.723 76.8583 186.857 76.7834 188.254Z" fill="#32497A"/>
<path d="M69.6727 195.498C73.0624 195.498 75.8104 192.294 75.8104 188.341C75.8104 184.389 73.0624 181.184 69.6727 181.184C66.2829 181.184 63.5349 184.389 63.5349 188.341C63.5349 192.294 66.2829 195.498 69.6727 195.498Z" fill="white"/>
<path d="M74.0142 187.905C74.0142 190.523 72.7417 192.88 70.7208 194.014C70.2717 194.189 69.8974 194.364 69.4483 194.451C69.598 194.451 69.0741 194.451 69.1489 194.451C68.625 194.451 69.2986 194.451 68.9992 194.451C68.8495 194.451 68.6998 194.451 68.5501 194.364C68.9244 194.451 68.4753 194.364 68.4004 194.364C67.8765 194.189 68.6998 194.538 68.2507 194.276L67.9513 194.102C68.2507 194.276 67.8016 194.014 67.8016 194.014L67.5022 193.84C67.7268 194.014 67.4274 193.753 67.3525 193.753C67.2777 193.753 67.128 193.578 67.0531 193.491C66.8286 193.316 66.6788 193.054 66.5291 192.793C65.1818 190.698 64.9573 187.905 66.08 185.548C66.604 184.501 67.3525 183.541 68.3256 183.017C68.6998 182.755 69.1489 182.581 69.598 182.493C69.8226 182.406 69.9723 182.406 70.1968 182.406C70.2717 182.406 70.6459 182.406 70.3465 182.406C70.4962 182.406 70.6459 182.406 70.8705 182.493C70.4214 182.406 70.9453 182.493 71.0202 182.581C71.5441 182.668 70.7208 182.406 71.1699 182.668C71.1699 182.668 71.619 182.93 71.3944 182.755C71.1699 182.581 71.6938 182.93 71.7687 183.017C72.1429 183.279 72.4423 183.628 72.7417 184.065C73.5651 185.025 74.0142 186.421 74.0142 187.905C74.0142 188.778 74.9873 189.301 75.6609 189.476C76.0352 189.563 77.6819 189.825 77.6819 188.952C77.607 185.286 75.5861 182.057 72.592 180.922C69.5232 179.526 65.7058 179.962 63.4603 182.93C61.5142 185.548 61.2148 189.301 62.7866 192.182C64.583 195.673 68.4004 197.157 71.6938 196.633C75.0621 196.196 77.607 192.88 77.7567 188.952C77.7567 188.079 76.7837 187.643 76.11 187.468C75.6609 187.294 74.0142 187.032 74.0142 187.905Z" fill="#32497A"/>
<path d="M99.2386 190.698C103 190.698 106.05 187.142 106.05 182.755C106.05 178.369 103 174.813 99.2386 174.813C95.4768 174.813 92.4272 178.369 92.4272 182.755C92.4272 187.142 95.4768 190.698 99.2386 190.698Z" fill="white"/>
<path d="M104.253 183.017C104.253 184.326 103.954 185.548 103.28 186.596C103.43 186.334 103.206 186.683 103.206 186.683L102.906 187.032L102.682 187.294C102.307 187.73 102.981 187.119 102.532 187.468C102.307 187.643 102.083 187.818 101.783 187.992C101.484 188.167 101.708 188.079 101.783 187.992C101.634 188.079 101.409 188.167 101.185 188.254C100.211 188.603 99.2384 188.603 98.2654 188.341C97.7414 188.167 97.2923 187.905 96.8432 187.556C96.3941 187.207 95.945 186.77 95.5708 186.246C94.8971 185.286 94.448 184.064 94.3731 182.843C94.3731 182.232 94.3732 181.708 94.448 181.097C94.5229 180.748 94.5977 180.399 94.7474 180.05C94.8222 179.788 94.972 179.439 95.1217 179.177C95.1965 179.002 95.2714 178.915 95.3462 178.74C95.4959 178.391 95.0468 179.09 95.4211 178.653C95.6456 178.391 95.7953 178.129 96.0199 177.868C96.3941 177.431 95.8702 178.042 96.0947 177.78L96.469 177.431L96.7684 177.257L97.0678 177.082C96.9181 177.169 96.9181 177.169 97.1426 177.082C97.442 176.908 97.6666 176.82 97.966 176.733C97.8911 176.733 97.6666 176.82 98.0408 176.733L98.4899 176.646C99.0887 176.558 99.6127 176.558 100.211 176.733C101.334 177.082 102.307 177.78 103.056 178.74C103.804 180.05 104.253 181.446 104.253 183.017C104.253 185.636 107.846 184.763 107.846 182.493C107.846 178.479 105.676 174.9 102.457 173.504C98.939 172.107 95.1217 173.329 92.7264 176.646C90.4061 179.875 90.0318 184.414 91.8282 187.992C93.6995 191.396 97.1426 193.229 100.586 192.356C104.703 191.396 107.697 187.294 107.846 182.406C107.846 179.875 104.253 180.748 104.253 183.017Z" fill="#32497A"/>
<path d="M97.0679 190.436C100.458 190.436 103.206 187.232 103.206 183.279C103.206 179.326 100.458 176.122 97.0679 176.122C93.6781 176.122 90.9302 179.326 90.9302 183.279C90.9302 187.232 93.6781 190.436 97.0679 190.436Z" fill="white"/>
<path d="M101.409 183.017C101.409 185.723 100.062 188.167 97.9661 189.389C97.517 189.65 96.9931 189.825 96.4691 189.912C96.3194 189.912 95.8703 189.912 96.0949 189.912C96.3194 189.912 96.8434 190.174 96.4691 189.912C93.4002 188.516 91.9781 184.414 93.1757 180.922C93.2505 180.661 93.4002 180.399 93.4751 180.137C93.999 178.915 94.8224 177.955 95.7955 177.344C96.2446 177.082 96.6937 176.82 97.2176 176.646C97.4422 176.558 97.6667 176.558 97.8913 176.471C98.4152 176.471 97.8913 176.471 97.6667 176.384C97.2925 176.384 97.8164 176.471 97.9661 176.558C98.2655 176.733 98.4901 176.908 98.7895 177.082C99.2386 177.518 99.6877 177.955 100.062 178.479C100.96 179.875 101.409 181.359 101.409 183.017C101.409 183.454 102.906 183.628 103.206 183.628C103.505 183.628 105.152 183.89 105.077 183.541C105.002 180.224 103.056 177.257 100.286 176.297C97.1428 175.075 93.1008 174.987 90.7056 178.042C88.7595 180.486 88.535 184.152 90.032 186.945C91.8284 190.349 95.9452 191.309 99.1637 190.872C102.457 190.523 105.002 187.381 105.077 183.541C105.077 182.843 101.409 182.581 101.409 183.017Z" fill="#32497A"/>
<path d="M127.307 187.381C131.069 187.381 134.119 183.825 134.119 179.439C134.119 175.052 131.069 171.496 127.307 171.496C123.546 171.496 120.496 175.052 120.496 179.439C120.496 183.825 123.546 187.381 127.307 187.381Z" fill="white"/>
<path d="M132.248 179.177C132.248 180.573 131.873 181.97 131.2 183.192C130.601 184.152 129.852 184.85 128.954 185.286C128.505 185.548 127.981 185.636 127.457 185.723C127.307 185.723 127.158 185.723 127.008 185.723C127.307 185.723 126.933 185.723 126.858 185.723C126.783 185.723 126.559 185.723 126.409 185.636C126.409 185.636 125.81 185.461 126.185 185.636C125.885 185.548 125.586 185.374 125.361 185.286C125.661 185.461 125.137 185.199 125.137 185.199L124.837 185.025C124.388 184.675 123.939 184.239 123.565 183.715C122.891 182.668 122.517 181.533 122.442 180.224C122.367 178.915 122.592 177.606 123.191 176.471C123.715 175.336 124.538 174.464 125.511 173.853C125.511 173.853 125.81 173.678 125.586 173.765C125.736 173.678 125.885 173.591 126.11 173.591L126.484 173.504C126.409 173.504 127.008 173.416 126.783 173.416C127.307 173.329 127.757 173.329 128.28 173.416C128.355 173.416 128.879 173.591 128.505 173.416C128.655 173.504 128.879 173.504 129.029 173.591C128.954 173.591 129.553 173.853 129.328 173.678C129.104 173.504 129.703 173.853 129.778 173.94L130.077 174.115C130.152 174.202 130.301 174.289 130.376 174.376C130.301 174.289 130.301 174.289 130.451 174.464C130.676 174.725 130.9 174.9 131.05 175.162C131.798 176.297 132.248 177.693 132.248 179.177C132.322 180.224 132.996 181.01 133.894 181.097C134.568 181.184 135.99 180.835 135.915 179.7C135.915 175.598 133.67 171.933 130.376 170.536C126.933 168.965 123.041 170.1 120.571 173.242C118.325 176.297 117.951 180.661 119.748 184.152C121.694 187.818 125.286 189.65 128.954 188.952C132.846 188.254 135.766 184.414 135.915 179.788C135.84 178.74 135.167 177.868 134.269 177.868C133.595 177.693 132.248 178.042 132.248 179.177Z" fill="#32497A"/>
<path d="M125.137 187.119C128.527 187.119 131.274 183.915 131.274 179.962C131.274 176.01 128.527 172.805 125.137 172.805C121.747 172.805 118.999 176.01 118.999 179.962C118.999 183.915 121.747 187.119 125.137 187.119Z" fill="white"/>
<path d="M129.553 180.399C129.553 181.708 129.254 183.017 128.655 184.065C128.58 184.239 128.43 184.414 128.281 184.588L128.056 184.85C128.056 184.85 127.682 185.286 127.906 185.025L127.682 185.286C127.682 185.286 127.233 185.636 127.532 185.374L127.233 185.548L126.933 185.723C127.083 185.636 127.158 185.636 127.008 185.723C126.858 185.723 126.709 185.81 126.634 185.897C127.008 185.81 126.634 185.897 126.559 185.897C126.484 185.897 126.11 185.985 126.409 185.897H125.885C125.661 185.897 125.511 185.897 125.287 185.81C125.062 185.81 124.838 185.723 124.613 185.636C121.694 184.501 120.122 180.835 121.17 177.431C121.245 177.082 121.394 176.733 121.544 176.384C121.769 175.86 122.068 175.424 122.367 175.075C122.667 174.726 122.966 174.464 123.341 174.289C123.415 174.202 123.64 174.202 123.341 174.289C123.49 174.202 123.64 174.202 123.79 174.115C123.341 174.289 124.239 174.027 124.089 174.115C123.939 174.202 124.388 174.115 124.388 174.115H124.688C124.987 174.115 125.212 174.202 125.511 174.289C127.832 175.075 129.478 177.518 129.553 180.399C129.553 181.272 130.526 181.359 131.2 181.272C131.873 181.184 133.221 180.573 133.146 179.7C133.146 176.297 131.275 173.242 128.505 172.107C125.137 170.885 121.469 172.107 119.074 175.162C117.053 177.78 116.754 181.621 118.251 184.588C119.972 187.643 123.191 189.127 126.335 188.254C129.927 187.381 133.146 184.152 133.221 179.613C133.221 178.653 132.173 178.653 131.649 178.74C131.125 178.828 129.553 179.439 129.553 180.399Z" fill="#32497A"/>
<path d="M165.706 184.501C165.706 184.501 167.502 170.798 169.299 170.449C171.095 170.1 185.841 168.703 187.038 169.052C188.236 169.401 186.739 184.501 186.739 184.501H165.706Z" fill="#32497A"/>
<path d="M167.502 184.064C167.876 180.835 168.475 177.693 169.224 174.551C169.448 173.591 169.673 172.718 169.972 171.845C170.047 171.583 170.197 171.234 170.346 170.972C170.721 170.274 171.095 170.361 169.748 170.798C168.325 171.322 168.7 171.147 169.074 171.06C169.149 171.06 169.448 170.972 169.149 171.06C168.849 171.147 169.224 171.06 169.299 171.06L169.822 170.972L172.068 170.711C175.736 170.361 179.852 169.925 183.296 169.751C183.894 169.751 184.493 169.663 185.092 169.751H185.391C185.317 169.663 185.541 169.838 185.391 169.751C185.391 169.663 185.466 169.838 185.466 169.838C185.541 170.361 185.691 170.885 185.691 171.496C185.766 172.369 185.691 173.242 185.691 174.202C185.616 177.868 185.317 181.446 184.942 185.112L188.086 183.977H166.978C166.08 183.977 165.182 184.152 164.433 184.588C163.909 184.937 163.834 185.286 164.583 185.286H185.616C186.29 185.286 186.963 185.112 187.637 184.85C187.936 184.763 188.685 184.588 188.685 184.152C189.059 180.748 189.284 177.344 189.433 173.853C189.433 172.893 189.508 171.845 189.433 170.885C189.433 170.274 189.358 169.576 189.209 169.052C188.834 168.179 187.263 168.441 186.589 168.529C182.547 168.703 178.43 169.052 174.388 169.489C172.891 169.663 171.394 169.751 169.972 170.012C169.074 170.187 167.876 170.449 167.203 171.234C166.828 171.845 166.529 172.543 166.305 173.242C165.182 177.082 164.433 181.01 163.984 185.112C163.834 185.199 167.352 185.112 167.502 184.064Z" fill="#32497A"/>
<path d="M195.047 181.01C195.047 181.01 196.844 167.307 198.64 166.958C200.436 166.608 215.182 165.212 216.379 165.561C217.577 165.91 216.08 181.01 216.08 181.01H195.047Z" fill="#32497A"/>
<path d="M196.918 181.272C197.293 178.129 197.892 174.9 198.565 171.845C198.79 170.972 199.014 170.1 199.314 169.314C199.463 168.965 199.538 168.703 199.688 168.354C199.763 168.267 199.838 168.179 199.913 168.005C199.838 168.179 199.763 168.092 199.838 168.092C199.913 168.092 199.838 168.092 199.688 168.179C199.763 168.179 198.79 168.354 199.389 168.267L200.137 168.179L202.233 167.918C206.05 167.481 209.868 167.132 213.685 166.958C214.359 166.958 215.032 166.87 215.706 166.87H216.08C216.38 166.87 215.556 166.87 215.931 166.87C216.005 166.87 216.08 166.87 216.155 166.87C215.931 166.783 215.107 166.259 214.883 166.172C214.658 166.085 214.808 165.823 214.883 166.172C214.883 166.259 214.957 166.347 214.957 166.521C215.032 166.783 215.032 166.958 215.032 167.219C215.032 168.092 215.032 168.965 215.032 169.925C214.957 173.591 214.658 177.169 214.284 180.835L215.781 179.7H194.673C193.999 179.7 193.026 180.224 193.251 181.184C193.475 182.144 194.748 182.406 195.421 182.406H216.454C216.978 182.406 217.877 182.057 217.951 181.272C218.326 177.868 218.55 174.464 218.7 170.972C218.775 169.401 218.925 167.394 218.475 165.823C217.951 163.99 216.005 164.077 214.733 164.165C210.841 164.252 206.874 164.688 202.981 165.037C201.484 165.212 200.062 165.299 198.565 165.561C196.844 165.823 196.17 166.958 195.571 168.703C194.448 172.631 193.625 176.646 193.176 180.748C192.951 182.581 196.694 183.104 196.918 181.272Z" fill="#32497A"/>
<path d="M226.035 178.217C226.035 178.217 227.832 164.514 229.628 164.165C231.425 163.815 246.17 162.419 247.368 162.768C248.565 163.117 247.068 178.217 247.068 178.217H226.035Z" fill="#32497A"/>
<path d="M227.757 179.177C228.131 175.947 228.73 172.718 229.478 169.576C229.703 168.703 229.927 167.743 230.227 166.87C230.377 166.434 230.676 165.561 231.05 165.299C231.35 165.125 231.724 165.125 232.023 165.125L234.044 164.863C237.862 164.426 241.754 164.077 245.571 163.903C246.245 163.903 246.919 163.815 247.592 163.815C247.817 163.815 248.041 163.815 248.266 163.815C249.763 163.903 245.871 162.681 245.945 162.244C245.945 162.157 245.945 162.157 245.945 162.332C245.945 162.419 246.02 162.506 246.02 162.681C246.095 163.03 246.095 163.292 246.095 163.641C246.17 164.514 246.095 165.387 246.095 166.259C246.02 169.925 245.721 173.591 245.347 177.257L245.646 177.169H224.688C223.939 177.169 224.838 177.955 225.062 178.129C225.736 178.74 226.559 179.177 227.383 179.264H248.416C248.565 179.264 248.64 179.264 248.715 179.177C249.089 175.773 249.314 172.369 249.463 168.878C249.538 167.394 249.763 165.387 249.314 163.99C248.939 162.855 247.442 162.157 246.544 161.808C246.02 161.633 245.571 161.633 245.047 161.633C241.155 161.633 237.338 162.07 233.445 162.506C231.874 162.681 230.227 162.855 228.655 163.03C227.457 163.205 227.083 164.165 226.709 165.387C225.586 169.227 224.763 173.242 224.389 177.257C224.239 178.304 227.682 179.526 227.757 179.177Z" fill="#32497A"/>
<path d="M12.4868 245.248L23.0407 217.755C23.0407 217.755 140.032 203.004 142.053 200.648C144.074 198.291 148.191 189.912 148.191 189.912C148.191 189.912 291.829 145.923 342.577 176.384C342.577 176.384 299.538 241.495 278.954 261.22" fill="white"/>
<path d="M13.3852 247.081L19.7475 230.585L23.3403 221.42C23.49 221.071 23.7145 219.937 24.0139 219.675C23.7894 219.849 24.1636 219.762 24.2385 219.762C26.5588 219.151 29.1786 219.151 31.499 218.802C36.4391 218.191 41.3792 217.58 46.2445 216.882C60.017 215.136 73.8643 213.303 87.6368 211.383C100.81 209.638 113.984 207.805 127.083 205.71C131.125 205.099 135.167 204.401 139.209 203.615C140.257 203.441 141.305 203.179 142.278 202.83C143.924 202.219 144.897 199.688 145.721 198.204C146.769 196.371 147.667 194.538 148.64 192.705C148.715 192.531 149.089 191.832 149.089 191.832C149.014 191.92 149.089 191.832 149.164 191.832C149.688 191.571 150.212 191.483 150.736 191.396C153.58 190.523 156.424 189.738 159.344 188.952C170.721 185.81 182.098 182.93 193.625 180.399C209.493 176.82 225.511 173.765 241.604 171.496C258.52 169.052 275.586 167.481 292.577 167.656C306.949 167.83 321.769 169.052 335.467 174.464C338.161 175.511 340.856 176.82 343.401 178.391L341.904 174.464C336.739 182.232 331.5 189.912 326.185 197.593C315.931 212.343 305.452 227.006 294.374 240.971C289.284 247.43 284.044 253.801 278.281 259.387C277.682 259.998 279.703 263.577 279.928 263.315C284.943 258.34 289.733 252.929 294.149 247.255C299.688 240.36 305.077 233.291 310.317 226.134C319.823 213.216 328.955 200.037 338.012 186.683C339.883 183.977 341.754 181.184 343.551 178.391C344 177.693 342.577 174.813 342.054 174.464C330.077 167.307 316.155 165.212 302.907 164.252C286.29 163.03 269.598 164.077 253.131 165.91C236.365 167.83 219.673 170.711 203.056 174.115C190.107 176.82 177.233 179.875 164.433 183.279C160.466 184.326 156.499 185.374 152.532 186.508L149.089 187.468C148.565 187.556 148.041 187.73 147.592 187.905C147.293 188.254 147.068 188.603 146.918 189.039C145.945 190.96 144.972 192.88 143.924 194.713C143.101 196.196 142.203 198.466 140.631 198.989C137.861 199.775 135.017 200.386 132.173 200.735C120.272 202.742 108.296 204.401 96.3195 206.059C82.023 208.067 67.6517 209.987 53.3553 211.82C43.8493 213.042 34.3433 214.263 24.8373 215.485C24.0888 215.485 23.2654 215.573 22.5169 215.747C21.9181 216.096 21.7684 217.056 21.469 217.842L13.6097 238.266L11.6636 243.415C11.2145 244.375 13.2355 247.343 13.3852 247.081Z" fill="#000005"/>
<path d="M167.577 202.393C210.541 193.84 253.73 186.945 297.143 181.708L167.577 202.393Z" fill="white"/>
<path d="M169.149 203.004C185.915 199.688 202.682 196.633 219.523 193.753C236.29 190.96 253.056 188.341 269.823 186.072C279.329 184.763 288.835 183.541 298.341 182.406C299.014 182.319 299.014 181.97 298.416 181.621C297.592 181.184 296.694 181.01 295.796 181.097C278.805 183.192 261.889 185.461 244.972 187.992C228.056 190.523 211.215 193.316 194.448 196.371C184.942 198.117 175.436 199.949 165.93 201.782C165.107 201.957 166.305 202.568 166.454 202.655C167.427 203.004 168.251 203.092 169.149 203.004Z" fill="#000005"/>
<path d="M83.3704 230.759C116.005 226.046 148.939 224.213 181.799 225.086L83.3704 230.759Z" fill="white"/>
<path d="M82.2475 231.632C94.9721 229.799 107.697 228.403 120.496 227.443C133.221 226.483 145.945 225.959 158.67 225.872C165.93 225.784 173.116 225.872 180.376 226.046C181.275 225.959 182.098 225.61 182.772 225.086C182.996 224.912 183.969 224.126 183.146 224.126C170.272 223.777 157.472 223.777 144.598 224.301C131.724 224.824 118.924 225.697 106.125 227.094C98.8643 227.879 91.6787 228.752 84.4182 229.799C83.52 229.974 82.6966 230.41 81.9481 231.021C81.499 231.458 81.5739 231.807 82.2475 231.632Z" fill="#000005"/>
<path d="M99.0888 152.469H104.628C105.152 152.469 105.601 152.382 106.05 152.033C106.424 151.858 106.649 151.509 106.798 151.073C106.948 150.112 105.975 149.676 105.301 149.676H99.7625C99.2386 149.676 98.7894 149.763 98.3403 150.112C97.9661 150.287 97.7415 150.636 97.5918 151.073C97.4421 152.033 98.4152 152.469 99.0888 152.469Z" fill="#32497A"/>
<path d="M121.394 150.462H127.831C128.056 150.462 127.831 150.112 127.757 150.025C127.457 149.676 127.158 149.414 126.858 149.24C126.185 148.716 125.511 148.367 124.688 148.28H118.251C118.026 148.28 118.251 148.629 118.325 148.716C118.625 149.065 118.924 149.327 119.224 149.502C119.897 150.025 120.646 150.374 121.394 150.462Z" fill="#32497A"/>
<path d="M137.936 149.676H145.197C146.095 149.589 146.769 148.716 146.694 147.669C146.694 147.581 146.694 147.494 146.694 147.494C146.394 146.359 145.496 145.661 144.523 145.748H137.263C136.364 145.836 135.691 146.709 135.766 147.756C135.766 147.843 135.766 147.93 135.766 148.018C136.065 149.065 136.963 149.763 137.936 149.676Z" fill="#32497A"/>
<path d="M184.418 144.876H195.796C196.619 144.876 197.742 144.614 197.966 143.479C198.191 142.345 197.293 141.734 196.469 141.734H185.167C184.344 141.734 183.221 141.995 182.996 143.13C182.772 144.265 183.67 144.876 184.418 144.876Z" fill="#32497A"/>
<path d="M244.598 264.1C242.278 263.751 226.634 257.118 233.82 250.747C241.005 244.375 254.928 253.452 251.26 254.587C247.592 255.722 240.856 240.622 249.164 237.48C257.472 234.338 285.092 260.173 279.329 256.507C273.565 252.841 296.02 233.727 303.356 244.113C310.691 254.5 303.131 263.315 301.709 260.26C300.287 257.205 314.059 255.023 317.577 264.537" fill="white"/>
<path d="M244.299 262.093C244.149 262.093 244.074 262.006 243.925 262.006L243.7 261.918C243.401 261.831 243.7 261.918 243.625 261.918C243.101 261.744 242.577 261.569 242.128 261.308C240.781 260.784 239.508 260.086 238.311 259.387C237.038 258.689 235.841 257.816 234.793 256.769C234.718 256.682 234.419 256.42 234.643 256.682L234.269 256.333C234.194 256.245 234.044 256.071 233.969 255.983C233.895 255.896 233.895 255.896 233.82 255.809C233.67 255.547 233.969 256.158 233.895 255.896C233.82 255.634 233.745 255.634 233.67 255.46C233.445 255.111 233.67 255.547 233.67 255.46C233.67 255.372 233.595 255.198 233.52 255.023C233.445 254.849 233.595 255.198 233.595 255.198C233.595 255.198 233.52 255.023 233.52 254.936C233.595 254.587 233.445 255.285 233.52 254.849C233.595 254.412 233.52 254.849 233.52 254.762C233.52 254.587 233.595 254.5 233.595 254.325C233.67 254.238 233.67 254.151 233.745 254.063C234.119 253.452 234.568 252.841 235.167 252.405C236.589 251.27 238.236 250.659 239.957 250.572C243.176 250.397 246.395 251.27 249.239 253.103L249.463 253.19L249.838 253.452C250.062 253.627 250.287 253.801 250.586 254.063C250.811 254.238 250.886 254.325 250.586 254.063C250.661 254.151 250.736 254.238 250.811 254.325C251.035 254.5 250.886 254.412 250.736 254.151C250.886 254.5 250.661 253.889 250.661 253.976C250.586 253.627 250.586 253.278 250.661 252.929C250.736 252.841 250.736 252.754 250.811 252.667C250.586 252.754 250.736 252.754 250.811 252.667C250.736 252.754 250.661 252.754 250.511 252.754C250.212 252.754 250.736 252.754 250.511 252.754C250.437 252.754 250.287 252.754 250.212 252.667C250.511 252.754 250.287 252.667 250.137 252.667C250.062 252.667 249.763 252.405 249.987 252.58C250.212 252.754 249.913 252.492 249.838 252.405L249.538 252.143C249.389 251.969 249.613 252.23 249.613 252.23L249.389 252.056C249.164 251.794 249.014 251.532 248.79 251.27C248.565 251.008 248.94 251.532 248.715 251.183C248.64 251.008 248.49 250.834 248.416 250.659C248.266 250.31 248.041 249.961 247.892 249.699L247.742 249.437C247.742 249.437 247.892 249.787 247.742 249.525C247.592 249.263 247.592 249.088 247.517 248.914C247.368 248.565 247.293 248.128 247.143 247.779C247.143 247.692 246.993 247.255 247.068 247.517C246.993 247.255 246.993 247.081 246.919 246.819C246.544 245.423 246.619 243.939 247.068 242.542C247.592 241.146 248.64 240.186 249.838 239.749C250.212 239.575 250.661 239.487 251.035 239.487C251.335 239.487 251.035 239.487 251.11 239.487H251.484C251.709 239.487 252.008 239.487 252.233 239.575C253.281 239.749 254.329 240.011 255.302 240.448C260.916 242.717 265.856 246.47 270.721 250.397C272.817 252.143 274.913 253.889 276.934 255.722C277.308 256.071 277.682 256.42 277.982 256.769L278.431 257.205C278.056 256.769 278.356 257.118 278.505 257.293C278.655 257.467 278.88 257.729 279.029 257.904C279.179 258.078 278.88 257.729 278.88 257.729L278.955 257.816C278.58 257.205 278.505 256.333 278.88 255.634C279.029 255.285 279.404 255.111 279.703 255.198C279.628 255.198 279.628 255.285 279.778 255.198C279.928 255.111 279.853 255.198 279.703 255.111C279.553 255.023 279.479 255.023 279.404 254.936C279.553 255.023 279.703 255.198 279.479 255.023C279.254 254.849 279.553 255.111 279.553 255.111C279.329 254.849 279.703 255.46 279.703 255.285C279.553 254.936 279.853 255.634 279.778 255.547C279.703 255.198 279.853 255.896 279.853 255.722C279.778 255.372 279.853 255.634 279.853 255.809C279.853 255.634 279.928 255.198 279.853 255.634C279.928 255.46 279.928 255.198 280.002 255.023C280.077 254.849 280.077 254.849 280.077 254.674C279.928 254.936 280.077 254.5 280.077 254.674C280.227 254.412 280.302 254.238 280.452 253.976C280.751 253.452 281.05 253.016 281.425 252.492C282.248 251.445 283.146 250.485 284.119 249.699C288.311 245.946 294.374 242.28 299.688 243.59C300.212 243.764 300.661 243.939 301.185 244.288C301.26 244.288 301.035 244.201 301.335 244.375L301.709 244.637C301.784 244.637 302.083 244.986 301.934 244.812C301.784 244.637 302.158 244.986 302.158 245.073C303.655 246.819 304.628 249.088 304.928 251.619C305.152 253.452 304.928 255.285 304.179 256.856C304.029 257.205 303.805 257.467 303.655 257.816L303.356 258.253C303.281 258.34 303.206 258.427 303.131 258.515C302.907 258.689 302.757 258.864 302.532 259.038C302.458 259.038 302.158 259.213 302.383 259.126C302.607 259.038 302.233 259.125 302.158 259.213C301.934 259.213 302.308 259.3 302.158 259.213C302.008 259.125 302.458 259.387 302.233 259.213C302.757 259.475 303.056 260.086 303.131 260.784C303.131 261.046 303.131 261.22 303.056 261.308C303.131 261.308 303.131 261.133 303.206 261.133C302.982 261.308 303.056 261.22 303.206 261.133C303.356 261.046 303.506 260.958 303.655 260.784C303.73 260.784 303.955 260.609 303.805 260.697C303.655 260.784 304.029 260.609 304.104 260.609C304.628 260.435 305.227 260.26 305.751 260.173C308.52 259.736 311.29 260.347 313.685 261.918C314.284 262.355 314.808 262.791 315.257 263.402C315.706 263.926 316.006 264.537 316.305 265.235C316.604 266.108 317.428 267.155 318.326 266.981C319.224 266.806 319.299 265.497 319 264.711C317.203 260.086 313.535 257.293 309.344 256.42C307.622 256.071 305.901 256.071 304.254 256.333C303.056 256.507 301.634 256.943 300.811 257.991C299.688 259.387 300.437 261.657 301.634 262.704C302.832 263.751 304.254 263.402 305.377 262.268C308.895 258.689 308.67 252.23 306.724 247.692C304.778 243.153 302.008 239.837 297.592 239.487C294.074 239.313 290.631 240.622 287.488 242.455C284.419 244.113 281.724 246.47 279.329 249.35C277.682 251.358 276.11 254.412 277.607 257.118C278.131 258.078 278.955 258.864 279.928 259.3C281.649 259.998 281.949 257.816 281.2 256.42C280.601 255.634 280.002 254.936 279.254 254.325C278.431 253.452 277.532 252.667 276.709 251.881C271.245 246.819 265.257 242.368 258.969 238.789C256.425 237.393 253.505 235.909 250.661 235.822C247.293 235.56 244.374 238.353 243.775 242.193C243.176 246.47 244.748 251.096 247.068 254.325C247.966 255.809 249.314 256.769 250.811 257.205C252.233 257.467 253.505 256.42 253.206 254.674C252.907 252.929 251.634 251.619 250.437 250.747C248.865 249.612 247.218 248.739 245.422 248.128C241.454 246.732 236.739 246.295 233.071 249.088C231.649 250.223 230.377 251.881 230.302 253.976C230.377 256.071 231.125 257.991 232.398 259.387C234.793 262.268 238.236 264.188 241.454 265.497C242.502 266.021 243.55 266.37 244.673 266.632C245.571 266.806 245.946 265.759 245.796 264.886C245.871 263.14 245.197 262.268 244.299 262.093Z" fill="#32497A"/>
<path d="M277.982 246.47C277.982 243.153 276.335 240.273 273.715 239.051L277.982 246.47Z" fill="white"/>
<path d="M279.853 246.47C279.853 243.066 278.056 240.011 275.287 238.876C274.913 238.789 274.538 238.702 274.164 238.702C273.715 238.702 273.191 238.702 272.742 238.702C272.517 238.702 271.993 238.702 271.844 238.876C271.694 239.051 271.844 239.051 271.993 239.138C273.041 239.662 273.94 240.448 274.613 241.495L274.538 241.408C275.511 242.804 276.035 244.55 275.961 246.383C275.961 246.557 276.484 246.644 276.484 246.644C277.383 246.819 278.281 246.819 279.179 246.732C279.404 246.732 279.853 246.644 279.853 246.47Z" fill="#32497A"/>
<path d="M311.365 244.724C313.91 242.63 317.053 241.408 320.197 241.408L311.365 244.724Z" fill="white"/>
<path d="M312.488 246.033C312.562 245.946 313.086 245.51 312.712 245.859C312.862 245.684 313.086 245.597 313.236 245.51C313.535 245.335 313.835 245.073 314.134 244.899C314.434 244.724 314.808 244.55 315.107 244.375C315.182 244.375 315.781 244.026 315.332 244.288C315.482 244.201 315.631 244.113 315.856 244.113C316.529 243.851 317.278 243.677 318.027 243.502C318.101 243.502 318.775 243.415 318.326 243.415L318.775 243.328C319.149 243.328 319.598 243.241 319.973 243.241C320.946 243.241 321.769 242.455 321.994 241.32C322.068 240.36 321.47 239.487 320.646 239.4C320.571 239.4 320.497 239.4 320.422 239.4C316.754 239.4 313.236 240.797 310.242 243.241C309.494 243.851 309.344 244.986 309.868 245.859L309.943 245.946C310.691 246.819 311.739 246.819 312.488 246.033Z" fill="#32497A"/>
<path d="M79.1788 254.238C74.5381 248.826 68.9991 244.55 63.0111 241.582C60.3165 240.273 57.4721 239.226 54.553 239.575C51.6338 239.924 48.7895 241.931 47.8164 245.161C46.8434 248.39 48.6398 252.492 51.559 252.929C47.2176 245.073 39.3583 240.797 31.4242 242.019C29.9272 242.28 28.2805 242.804 27.3074 244.113C26.3344 245.423 26.1098 247.779 27.3074 248.914C28.505 250.048 30.7505 248.565 30.2266 246.906C30.002 246.383 29.7026 245.946 29.3284 245.597C20.3463 236.52 6.79838 237.655 -0.986063 248.128C-2.18367 249.787 -3.23158 251.619 -4.05493 253.54" fill="white"/>
<path d="M80.6009 252.929C75.511 246.994 69.4481 242.455 62.7864 239.4C59.1936 237.829 55.3014 237.044 51.5589 238.615C48.7894 239.837 46.0948 242.63 45.7205 246.295C45.3463 250.048 47.5169 253.889 50.8104 254.412C51.8583 254.587 54.0289 253.54 53.1307 251.881C49.9122 246.121 44.8972 242.106 39.0588 240.622C36.1397 239.837 33.1457 239.749 30.2265 240.448C27.3073 241.146 23.9391 243.502 24.463 247.517C24.987 251.358 29.2534 251.794 31.1996 249.176C33.6696 245.859 29.4031 242.979 27.3073 241.495C21.8432 237.742 15.3313 236.694 9.19351 238.527C2.60667 240.622 -2.93226 245.859 -5.92628 253.016C-6.15083 253.801 -5.85143 254.674 -5.17777 254.936C-5.10292 255.023 -4.95322 255.023 -4.80352 255.023C-3.83046 255.285 -2.93226 254.762 -2.40831 253.801C-0.387343 249.176 2.83123 245.423 6.87315 243.153C11.0648 240.884 15.7804 240.448 20.2714 241.844C22.5169 242.542 24.6127 243.764 26.4091 245.335C27.1576 245.859 27.8313 246.557 28.3552 247.43C28.3552 247.43 28.3552 247.605 28.2804 247.517C28.2055 247.43 28.5049 247.43 28.5049 247.43C28.5049 247.43 28.5798 247.43 28.5798 247.517C28.5798 247.605 28.2055 246.994 28.2804 246.994C28.0558 246.121 28.2055 245.248 28.8043 244.637C29.6277 243.939 30.6756 243.502 31.7235 243.415C33.8193 243.153 35.99 243.241 38.0858 243.851C42.9511 245.248 47.1427 248.739 49.7625 253.54L52.0828 251.008C50.2116 250.659 49.1637 248.128 49.3134 246.121C49.5379 243.59 51.5589 241.757 53.5798 241.233C56.4242 240.448 59.493 241.757 62.1128 242.979C64.8074 244.288 67.3523 245.946 69.8224 247.779C72.6667 249.961 75.2865 252.492 77.6068 255.285C79.029 256.943 82.1727 254.762 80.6009 252.929Z" fill="#32497A"/>
<path d="M118.775 195.76V203.79C118.775 204.052 119.224 204.139 119.299 204.226C120.197 204.488 121.095 204.488 121.918 204.313C122.068 204.313 122.442 204.226 122.442 203.964V195.935C122.442 195.673 121.993 195.585 121.918 195.498C121.469 195.324 121.02 195.324 120.571 195.324C120.122 195.324 119.673 195.324 119.224 195.411C119.224 195.411 118.775 195.498 118.775 195.76Z" fill="#000005"/>
<path d="M173.939 178.74L177.981 174.551C178.056 174.551 178.131 174.464 178.131 174.289C178.131 174.202 178.131 174.027 178.056 173.94C177.832 173.591 177.457 173.329 177.158 173.154C176.709 172.893 176.26 172.631 175.811 172.543L175.436 172.456C175.287 172.456 175.062 172.456 174.912 172.543L170.87 176.733C170.796 176.733 170.721 176.82 170.721 176.995C170.721 177.082 170.721 177.257 170.796 177.344C171.02 177.693 171.394 177.955 171.694 178.129C172.143 178.391 172.592 178.653 173.041 178.74L173.415 178.828C173.64 178.828 173.79 178.828 173.939 178.74Z" fill="white"/>
<path d="M200.062 174.115C200.137 174.115 200.212 174.115 200.362 174.115C200.586 174.115 200.811 174.027 200.96 174.027C201.409 173.94 201.859 173.678 202.308 173.416C202.532 173.329 202.682 173.154 202.906 172.98C203.056 172.805 203.281 172.631 203.43 172.456C203.655 172.194 203.88 171.933 204.029 171.671C204.104 171.496 204.179 171.322 204.254 171.147C204.329 170.885 204.254 170.536 204.029 170.449H203.954C203.805 170.362 203.655 170.362 203.505 170.362C202.607 170.449 201.784 170.972 201.185 171.845C201.11 171.933 201.11 172.02 201.035 172.107L201.335 171.758C201.26 171.845 201.185 171.933 201.11 171.933L201.484 171.583C201.409 171.671 201.335 171.671 201.26 171.758L201.709 171.409L201.484 171.583L201.933 171.322L201.709 171.409L202.158 171.234L201.859 171.322L202.233 171.234C202.158 171.234 202.008 171.234 201.933 171.234C201.709 171.234 201.484 171.322 201.335 171.409C200.886 171.583 200.436 171.845 200.062 172.194C199.912 172.369 199.763 172.544 199.613 172.718L199.463 173.067C199.389 173.242 199.389 173.504 199.463 173.678L199.613 173.853C199.688 174.115 199.912 174.115 200.062 174.115Z" fill="white"/>
<path d="M91.3044 251.794C95.8703 251.794 100.436 251.881 105.077 251.881L133.146 252.143L166.305 252.405L195.496 252.667C200.811 252.667 206.2 252.754 211.514 252.754H212.113C213.011 252.754 212.712 251.619 212.412 251.096C211.889 250.223 211.065 249.612 210.167 249.525C205.601 249.525 201.035 249.437 196.394 249.437L168.326 249.176L135.167 248.914L105.975 248.652C100.661 248.652 95.2715 248.565 89.9571 248.565H89.3583C88.4601 248.565 88.7595 249.786 89.0589 250.31C89.5829 251.183 90.4062 251.794 91.3044 251.794Z" fill="#32497A"/>
<path d="M223.802 308.368C240.967 308.368 254.882 304.231 254.882 299.128C254.882 294.025 240.967 289.888 223.802 289.888C206.637 289.888 192.722 294.025 192.722 299.128C192.722 304.231 206.637 308.368 223.802 308.368Z" fill="white"/>
<path d="M253.132 298.848V298.988C253.132 299.128 253.062 299.198 253.062 299.338C252.992 299.548 252.852 299.968 252.782 299.968C252.502 300.458 252.082 300.808 251.732 301.228C250.542 302.138 249.282 302.908 247.882 303.398C243.472 305.218 238.642 306.058 233.882 306.548C227.792 307.178 221.632 307.318 215.472 306.828C210.432 306.548 205.462 305.638 200.702 304.098C199.862 303.818 199.092 303.468 198.252 303.118C197.902 302.978 197.552 302.768 197.132 302.558L196.642 302.278C196.572 302.208 196.082 301.928 196.362 302.068C196.082 301.858 195.802 301.648 195.592 301.438C195.452 301.368 195.382 301.228 195.242 301.088L195.312 301.158L195.102 300.948L194.822 300.598C194.682 300.388 194.752 300.458 194.752 300.458C194.612 300.248 194.542 299.968 194.472 299.758C194.542 300.038 194.472 299.408 194.472 299.268C194.472 299.128 194.472 298.988 194.472 299.198C194.472 299.058 194.542 298.918 194.542 298.778C194.682 298.288 194.892 297.938 195.242 297.588C196.222 296.608 197.342 295.838 198.602 295.278C202.662 293.318 207.282 292.478 211.692 291.848C217.712 291.078 223.732 290.868 229.822 291.218C235.142 291.428 240.392 292.268 245.432 293.668C247.182 294.158 248.932 294.788 250.542 295.698C250.682 295.768 250.822 295.838 250.962 295.978C251.102 296.118 251.452 296.258 251.312 296.188C251.172 296.118 251.522 296.328 251.592 296.398C251.662 296.468 251.872 296.608 252.012 296.748L252.362 297.098C252.222 296.958 252.502 297.238 252.362 297.098L252.502 297.238C252.572 297.378 252.642 297.448 252.782 297.588C252.852 297.658 252.852 297.728 252.922 297.798C252.852 297.588 253.062 297.938 252.922 297.798C253.062 298.008 253.132 298.218 253.202 298.498C253.202 298.498 253.202 298.428 253.202 298.638C253.132 298.638 253.132 298.778 253.132 298.848C253.132 300.388 256.562 301.088 256.492 299.338C256.422 296.118 252.712 294.088 250.122 292.968C245.292 290.868 239.902 289.888 234.722 289.258C228.072 288.488 221.352 288.418 214.702 288.978C209.242 289.398 203.712 290.238 198.602 292.128C196.782 292.758 195.102 293.598 193.562 294.648C192.372 295.418 191.532 296.538 191.112 297.868C190.342 301.018 193.702 303.398 196.082 304.588C200.492 306.828 205.602 307.878 210.432 308.578C217.012 309.488 223.662 309.698 230.242 309.348C235.982 309.138 241.722 308.158 247.252 306.548C250.332 305.568 254.532 304.168 256.072 301.018C256.352 300.458 256.492 299.898 256.492 299.268C256.562 297.868 253.202 297.168 253.132 298.848Z" fill="#32497A"/>
<path d="M201.402 298.288C201.402 298.288 218.132 238.998 222.612 239.908C227.092 240.818 245.012 297.518 245.012 297.518C245.012 297.518 225.902 308.788 201.402 298.288Z" fill="white"/>
<path d="M203.082 297.938C203.642 296.048 204.132 294.228 204.692 292.338C206.022 287.858 207.352 283.378 208.682 278.898C210.362 273.368 212.112 267.838 213.932 262.378C215.612 257.478 217.292 252.578 219.252 247.748C219.952 246.068 220.722 244.318 221.492 242.848C221.772 242.288 222.122 241.728 222.472 241.168C222.612 240.958 222.752 240.748 222.892 240.538C222.752 240.678 223.032 240.328 222.892 240.538C222.962 240.468 223.032 240.398 223.102 240.328C223.172 240.188 222.752 240.538 223.032 240.398C222.752 240.608 222.402 240.678 222.052 240.748C221.842 240.748 221.562 240.748 221.352 240.748C220.932 240.748 221.422 240.748 221.352 240.818C221.142 240.608 221.282 240.888 221.352 240.818L221.562 241.028C221.702 241.168 221.842 241.308 221.982 241.518C222.332 241.938 222.612 242.428 222.892 242.918C223.312 243.618 223.662 244.318 224.012 245.018C226.112 249.218 227.792 253.698 229.472 258.108C231.572 263.568 233.532 269.098 235.422 274.628C237.172 279.598 238.782 284.568 240.462 289.608C241.372 292.338 242.212 295.068 243.122 297.798L243.262 298.148L243.892 297.238C243.822 297.238 243.822 297.308 243.752 297.308C243.752 297.308 243.682 297.378 243.612 297.378C243.542 297.378 244.032 297.168 243.682 297.308C243.192 297.588 242.702 297.798 242.212 298.008C241.862 298.148 241.512 298.358 241.162 298.498L240.602 298.708C240.532 298.708 240.112 298.918 240.532 298.708L240.182 298.848C239.132 299.268 238.012 299.618 236.962 299.898C234.302 300.738 231.502 301.298 228.702 301.578C224.992 301.928 221.282 301.928 217.642 301.508C212.462 300.878 207.492 299.478 202.732 297.448C201.892 297.238 201.052 297.448 200.352 297.938C199.932 298.218 199.372 298.778 200.072 299.128C213.652 304.868 229.402 305.358 243.052 299.408C244.102 298.988 245.082 298.498 246.062 297.938C246.342 297.798 246.832 297.448 246.692 297.028C246.062 295.068 245.432 293.038 244.802 291.078C243.262 286.318 241.652 281.558 240.042 276.868C238.082 271.198 236.122 265.528 234.022 259.858C232.202 255.028 230.382 250.198 228.212 245.508C227.512 243.968 226.742 242.498 225.902 241.098C225.412 240.328 224.782 239.278 223.802 239.068C222.262 238.718 220.652 239.768 219.742 240.958C218.902 242.148 218.202 243.408 217.572 244.808C215.612 249.148 213.862 253.558 212.322 258.038C210.362 263.568 208.542 269.238 206.792 274.838C205.252 279.878 203.712 284.918 202.172 289.958C201.332 292.688 200.562 295.488 199.792 298.218C199.722 298.358 199.722 298.498 199.652 298.568C199.442 299.618 202.732 298.988 203.082 297.938Z" fill="#32497A"/>
<path d="M215.332 261.608C219.742 258.038 224.222 254.608 228.842 251.388C230.312 250.338 227.302 248.798 226.182 249.568C221.562 252.858 217.082 256.218 212.672 259.788C211.272 260.908 214.282 262.448 215.332 261.608Z" fill="#32497A"/>
<path d="M210.852 274.908C214.772 272.948 218.482 270.708 222.052 268.188C223.802 266.928 225.482 265.668 227.092 264.338C228.772 262.938 230.242 261.328 232.272 260.418C232.902 260.138 231.782 259.298 231.572 259.158C231.082 258.808 230.102 258.178 229.472 258.458C227.512 259.368 226.042 260.908 224.432 262.238C222.822 263.568 221.002 264.968 219.252 266.228C215.682 268.748 211.972 270.988 208.052 272.948C207.352 273.298 210.012 275.328 210.852 274.908Z" fill="#32497A"/>
<path d="M206.722 291.218C217.572 286.458 227.722 280.088 236.682 272.318C236.962 272.108 234.512 269.658 233.952 270.148C224.992 277.918 214.842 284.288 203.992 289.048C203.712 289.188 205.042 290.378 205.112 290.448C205.462 290.658 206.302 291.428 206.722 291.218Z" fill="#32497A"/>
<path d="M209.522 302.068C221.422 300.038 231.992 293.738 241.512 286.668C242.912 285.618 240.532 283.098 239.342 284.008C229.962 291.008 219.672 297.238 207.982 299.198C207.142 299.338 207.072 300.248 207.422 300.878C207.772 301.648 208.612 302.138 209.522 302.068Z" fill="#32497A"/>
<path d="M57.54 215.81H52.22V320.11H57.54V215.81Z" fill="#000005"/>
<path d="M58.1 318.85H52.78L53.9 319.9V219.87C53.9 218.54 53.97 217.14 53.9 215.74C53.9 215.67 53.9 215.6 53.9 215.6L51.66 217H56.98L55.79 215.95V307.37C55.79 311.57 55.72 315.84 55.79 320.04C55.79 320.11 55.79 320.18 55.79 320.18C55.79 321.93 59.22 321.37 59.22 319.83V228.48C59.22 224.28 59.29 220.01 59.22 215.81V215.6C59.22 215.04 58.66 214.55 58.1 214.55H52.78C52.01 214.55 50.54 214.9 50.54 215.95V307.44C50.54 311.64 50.47 315.91 50.54 320.11V320.25C50.54 320.88 51.1 321.3 51.66 321.3H56.98C57.82 321.3 58.8 321.02 59.15 320.25C59.36 319.69 59.01 319.13 58.45 318.92C58.38 318.85 58.24 318.85 58.1 318.85Z" fill="#000005"/>
<path d="M78.9253 204.95C79.3563 192.007 69.2444 181.166 56.3398 180.736C43.4351 180.306 32.6244 190.451 32.1934 203.394C31.7624 216.337 41.8743 227.178 54.779 227.608C67.6836 228.038 78.4943 217.893 78.9253 204.95Z" fill="#32497A"/>
<path d="M77.42 204.82C77.35 213.85 71.96 222.32 63.35 225.4C54.6 228.48 44.52 225.12 38.78 217.98C32.97 210.7 31.99 200.13 36.82 192.08C38.99 188.37 42.28 185.43 46.13 183.68C50.4 181.86 55.09 181.44 59.57 182.49C68.67 184.66 75.6 192.08 77.07 201.32C77.28 202.44 77.35 203.63 77.42 204.82C77.42 206.01 80.57 204.68 80.57 203.56C80.5 193.34 73.99 184.31 64.33 180.95C54.32 177.52 42.98 181.23 36.26 189.28C29.61 197.26 28.77 208.53 34.16 217.42C39.62 226.24 50.19 230.37 60.27 228.2C70.35 226.03 78.61 217.77 80.36 207.48C80.57 206.22 80.64 204.89 80.64 203.63C80.57 202.37 77.42 203.7 77.42 204.82Z" fill="white"/>
<path d="M69.16 201.74H41.37V206.71H69.16V201.74Z" fill="white"/>
<path d="M39.97 249.69H35.56V321.72H39.97V249.69Z" fill="#000005"/>
<path d="M38.57 320.81H34.16L36.96 322.77V251.65C36.89 251.37 36.89 251.02 36.96 250.74V250.67C36.96 250.67 36.82 250.74 36.89 250.67C36.96 250.6 37.1 250.67 37.17 250.67C37.94 250.67 38.78 250.67 39.62 250.67H41.3L38.5 248.71V317.87C38.43 318.78 38.43 319.76 38.5 320.67C38.5 320.74 38.5 320.74 38.57 320.81C38.5 321.23 39.55 321.79 39.83 322C40.32 322.28 40.88 322.56 41.44 322.77V253.61C41.51 252.7 41.51 251.72 41.44 250.81C41.44 250.74 41.44 250.74 41.44 250.67C41.44 250.32 40.53 249.83 40.32 249.62C39.9 249.34 39.13 248.71 38.64 248.71H34.23H34.16V317.87C34.09 318.78 34.09 319.76 34.16 320.67C34.16 320.74 34.16 320.74 34.16 320.81C34.16 321.16 35.07 321.65 35.28 321.86C35.7 322.14 36.47 322.77 36.96 322.77H41.3C41.65 322.77 40.53 321.93 40.46 321.86C40.04 321.51 39.2 320.81 38.57 320.81Z" fill="#000005"/>
<path d="M109.13 249.83H104.72V321.86H109.13V249.83Z" fill="#000005"/>
<path d="M109.69 320.74H105.28L106.4 321.65V252.49C106.4 251.58 106.47 250.6 106.4 249.69C106.4 249.62 106.4 249.62 106.4 249.55L104.16 250.95H108.57L107.45 250.04V313.25C107.45 316.19 107.38 319.06 107.45 322C107.45 322.07 107.45 322.07 107.45 322.14C107.45 323.75 110.81 323.05 110.81 321.65V258.44C110.81 255.57 110.88 252.63 110.81 249.69V249.55C110.74 248.99 110.25 248.57 109.69 248.64H105.35C104.65 248.64 103.11 249.06 103.11 250.04V313.25C103.11 316.19 103.04 319.06 103.11 322V322.14C103.18 322.7 103.67 323.12 104.23 323.05H108.64C109.41 323.05 110.46 322.7 110.81 321.93C111.16 321.16 110.32 320.74 109.69 320.74Z" fill="#000005"/>
<path d="M130.55 255.57H13.44V277.83H130.55V255.57Z" fill="white"/>
<path d="M130.55 276.36H18.2C16.66 276.36 15.12 276.29 13.65 276.36H13.44L15.19 277.97V255.71L13.44 256.97H125.79C127.26 256.97 128.87 257.04 130.34 256.97H130.55L128.8 255.36V277.62C128.8 279.44 132.23 279.93 132.23 277.97V255.71C132.16 254.8 131.39 254.1 130.48 254.1H13.44C12.67 254.1 11.69 254.38 11.69 255.36V277.62C11.76 278.53 12.53 279.23 13.44 279.23H130.55C131.32 279.23 132.23 278.88 132.23 277.97C132.16 277.06 131.46 276.36 130.55 276.36Z" fill="#32497A"/>
<path d="M14.98 269.5L24.64 258.09L26.04 256.48C26.25 256.2 23.45 254.1 23.1 254.66L13.44 266L12.04 267.61C11.83 267.89 14.63 269.99 14.98 269.5Z" fill="#32497A"/>
<path d="M19.39 277.76L36.47 258.51L38.85 255.85C39.41 255.22 38.64 254.45 38.01 254.31C37.17 254.1 36.26 254.38 35.7 255.01L18.62 274.26L16.24 276.92C15.68 277.55 16.45 278.32 17.01 278.46C17.92 278.67 18.83 278.39 19.39 277.76Z" fill="#32497A"/>
<path d="M35.42 277.76L51.59 258.72L53.9 255.99C54.46 255.36 53.27 254.73 52.78 254.59C52.01 254.31 51.17 254.52 50.54 255.08L34.37 274.12L32.06 276.85C31.5 277.48 32.69 278.11 33.18 278.25C34.02 278.53 34.86 278.39 35.42 277.76Z" fill="#32497A"/>
<path d="M50.05 278.39L65.52 259.56L67.69 256.97C68.74 255.71 66.22 253.26 65.24 254.52L49.7 273.28L47.53 275.87C46.48 277.2 49 279.65 50.05 278.39Z" fill="#32497A"/>
<path d="M63.7 278.6L80.78 259.35L83.16 256.69C84.49 255.22 81.48 253.4 80.29 254.8L63.21 274.05L60.83 276.71C59.5 278.25 62.44 280 63.7 278.6Z" fill="#32497A"/>
<path d="M79.38 279.02L95.55 259.98L97.86 257.25C98.42 256.55 96.04 254.1 95.62 254.59L79.45 273.63L77.14 276.36C76.51 277.06 78.96 279.51 79.38 279.02Z" fill="#32497A"/>
<path d="M94.36 278.25L109.83 259.42L112 256.83C112.49 256.27 112.84 255.36 112.07 254.8C111.3 254.38 110.32 254.59 109.76 255.29L94.29 274.05L92.12 276.64C91.63 277.2 91.28 278.11 92.05 278.67C92.82 279.16 93.8 278.95 94.36 278.25Z" fill="#32497A"/>
<path d="M109.97 278.67L125.44 259.84L127.61 257.18C128.66 255.85 125.58 254.38 124.6 255.5L109.2 274.33L107.03 276.99C105.98 278.25 109.13 279.79 109.97 278.67Z" fill="#32497A"/>
<path d="M125.02 278.46L130.76 270.83L131.6 269.71C131.74 269.36 131.74 269.01 131.6 268.66C131.46 268.24 131.18 267.82 130.83 267.54C130.27 267.12 129.5 266.77 129.01 267.4L123.27 275.03L122.5 276.08C122.36 276.43 122.36 276.78 122.5 277.13C122.64 277.55 122.92 277.97 123.27 278.25C123.83 278.81 124.53 279.09 125.02 278.46Z" fill="#32497A"/>
<path d="M70.0289 60.3618C70.0289 60.3618 63.1289 52.5618 53.2289 55.0618C51.0289 55.5618 49.1289 56.7618 47.7289 58.5618C43.5289 63.8618 48.4289 70.8618 55.9289 70.8618L141.529 70.7618C147.729 70.7618 150.429 64.0618 145.429 60.9618C139.529 57.2618 131.829 60.3618 131.829 60.3618C131.829 60.3618 145.229 44.2618 129.429 27.6618C113.629 11.0618 90.5289 26.9618 93.0289 44.2618C93.1288 44.2618 67.9289 31.4618 70.0289 60.3618Z" fill="white"/>
<path d="M71.2289 60.8618C66.7289 55.8618 59.8289 52.0618 53.0289 53.0618C48.8289 53.6618 44.3289 56.5618 44.3289 61.2618C44.3289 65.5618 48.5289 69.2618 51.9289 71.0618C54.8289 72.6618 57.8289 72.5618 61.0289 72.5618H73.3289L110.629 72.4618L140.229 72.3618C143.129 72.3618 146.429 72.5618 148.629 70.1618C151.629 66.7618 149.029 62.9618 146.029 60.6618C142.229 57.7618 137.329 56.7618 132.729 57.9618C131.829 58.1618 130.929 58.4618 130.029 58.7618L133.829 62.0618C135.829 59.4618 137.229 56.5618 138.129 53.4618C140.029 46.7618 138.929 39.5618 135.129 33.7618C130.829 27.0618 123.929 20.6618 115.929 19.2618C109.729 18.2618 103.429 20.1618 98.6289 24.3618C93.2289 28.8618 90.4289 35.7618 91.2289 42.7618L91.6289 42.6618C85.0289 39.3618 74.4289 37.4618 70.1289 45.1618C67.8289 49.2618 67.8289 54.3618 68.1289 58.8618C68.2289 59.6618 69.6289 60.6618 70.2289 61.1618C70.4289 61.2618 72.0289 62.4618 71.9289 61.8618C71.5289 55.5618 72.0289 46.8618 78.8289 43.9618C82.8289 42.2618 87.6289 43.1618 91.6289 44.5618C92.6289 44.9618 93.6289 45.3618 94.6289 45.7618C94.7289 45.8618 95.1289 45.9618 95.0289 45.6618C93.5289 34.0618 103.529 22.9618 115.029 22.2618C121.629 21.7618 127.929 25.0618 131.329 30.7618C135.029 36.1618 136.229 42.9618 134.529 49.3618C133.729 52.7618 132.129 55.8618 130.029 58.5618C129.529 59.1618 133.029 62.1618 133.829 61.8618C136.529 60.7618 139.429 60.4618 142.329 60.7618C143.429 60.8618 144.529 61.1618 145.529 61.6618C145.829 61.7618 146.029 61.9618 146.329 62.0618C146.929 62.2618 145.629 61.6618 145.529 61.3618C145.629 61.7618 145.929 62.0618 146.029 62.4618C146.329 63.9618 146.029 65.4618 145.029 66.5618C143.029 68.9618 140.129 68.8618 137.329 68.8618H111.529L76.4289 68.9618H54.9289C53.4289 69.0618 52.0289 68.7618 50.6289 68.3618C50.2289 68.2618 49.8289 67.9618 49.4289 67.7618C49.0289 67.5618 49.4289 67.4618 49.5289 67.9618C49.3289 67.3618 48.7289 66.7618 48.5289 66.1618C47.9289 64.4618 48.1289 62.6618 48.9289 61.1618C51.1289 57.0618 56.1289 55.7618 60.4289 56.1618C62.3289 56.3618 64.1289 56.8618 65.8289 57.7618C66.3289 58.0618 66.9289 58.3618 67.4289 58.6618C67.5289 58.7618 68.3289 59.2618 67.9289 59.0618C68.1289 59.1618 68.9289 59.8618 68.3289 59.3618C68.5289 59.4618 68.7289 59.6618 68.8289 59.8618C69.2289 60.2618 68.5289 59.4618 68.7289 59.7618C69.3289 60.4618 70.4289 61.7618 71.4289 61.8618C72.4289 61.9618 71.5289 61.2618 71.2289 60.8618Z" fill="#32497A"/>
<path d="M277.529 96.9618C277.529 96.9618 273.529 88.2618 262.029 93.1618L277.529 96.9618Z" fill="white"/>
<path d="M164.929 93.2431C168.829 90.9431 174.829 92.3431 176.229 96.6431C176.729 97.7431 176.529 99.0431 175.929 100.143C175.729 100.443 175.329 100.743 174.929 100.743C174.729 100.743 174.529 100.743 174.429 100.743C174.329 100.743 174.329 100.543 174.329 100.743C174.529 101.243 174.429 101.043 174.529 100.743C174.829 100.143 175.329 99.6431 175.829 99.3431C177.129 98.5431 178.629 97.9431 180.229 97.6431C183.729 96.8431 187.529 97.3431 190.729 99.0431C191.729 99.5431 193.129 99.6431 193.729 98.5431C194.129 97.3431 193.629 96.0431 192.529 95.4431C188.129 92.9431 183.029 92.2431 178.129 93.3431C174.129 94.3431 167.529 97.7431 170.929 102.843C172.229 104.643 174.529 105.643 176.729 105.243C178.929 104.843 180.629 103.143 180.929 100.943C181.929 96.5431 179.029 92.0431 175.429 89.7431C171.529 87.2431 166.329 86.7431 162.329 89.1431C159.929 90.5431 162.829 94.5431 164.929 93.2431Z" fill="#000005"/>
<path d="M29.529 116.743C28.329 113.443 29.0289 109.743 31.229 107.043C32.3289 105.743 33.929 104.343 35.629 104.343C36.229 104.343 36.329 104.343 36.629 104.843C36.829 105.243 36.829 105.743 36.529 106.143L39.8289 106.043C34.0289 102.943 34.229 94.8432 39.729 91.5432C42.229 90.0432 38.529 86.9432 36.429 88.1432C32.729 90.3432 30.429 94.4432 30.629 98.7432C30.929 103.043 33.429 106.943 37.229 108.943C38.129 109.443 39.829 109.943 40.529 108.843C42.329 106.443 41.229 103.243 38.929 101.543C36.129 99.4432 32.129 100.043 29.429 101.943C24.729 105.343 22.829 111.343 24.729 116.743C25.229 117.943 26.329 118.743 27.629 118.643C28.729 118.843 29.929 117.943 29.529 116.743Z" fill="#000005"/>
<path d="M230.729 46.6432C230.929 45.7432 231.429 44.9432 232.229 44.5432C232.929 44.0432 233.829 43.9432 234.529 44.3432C236.429 45.4432 237.029 47.8432 235.929 49.7432L239.629 48.3432C239.429 48.2432 239.329 48.0432 239.229 47.7432C239.129 47.3432 239.129 47.0432 239.229 46.6432C239.329 46.3432 239.429 46.0432 239.529 45.7432C239.729 45.4432 239.529 45.7431 239.729 45.4431C239.829 45.3431 240.329 44.7431 240.129 44.9431C240.229 44.8431 240.929 44.3432 240.529 44.5432C240.629 44.4432 240.829 44.4432 240.929 44.3432C240.629 44.4432 240.729 44.4432 240.929 44.3432C241.129 44.3432 241.429 44.3432 241.629 44.3432C242.329 44.4432 243.029 44.5431 243.729 44.9431C245.429 45.7431 246.929 46.8432 248.329 48.0432C250.329 49.6432 254.329 46.8431 252.029 44.9431C248.029 41.7431 242.229 38.1432 237.329 41.8432C234.029 44.2432 232.829 49.7431 236.929 51.9431C238.329 52.5431 240.029 51.9432 240.629 50.5432C242.729 46.7432 240.529 41.6432 236.429 40.3432C231.929 39.0432 227.229 41.5432 225.929 46.0432C225.829 46.3432 225.829 46.5432 225.729 46.8432C225.529 48.0432 227.029 48.8432 228.029 48.7432C229.329 48.7432 230.429 47.8432 230.729 46.6432Z" fill="#000005"/>
<path d="M230.37 103.536C230.37 103.536 269.562 47.1835 276.034 48.8559C282.505 50.5283 304.028 110.952 303.155 117.133C302.283 123.313 221.645 115.751 230.37 103.536Z" fill="#32497A"/>
<path d="M231.534 104.844C234.37 100.7 237.351 96.7006 240.259 92.6287C246.149 84.4849 252.184 76.4866 258.438 68.6336C261.346 64.998 264.327 61.3624 267.527 57.8722C268.763 56.5634 269.999 55.1819 271.308 53.9457C271.889 53.4368 272.471 52.8551 273.053 52.3461L273.416 52.0552C273.489 51.9825 273.634 51.9098 273.344 52.1279L273.562 51.9825C273.78 51.8371 274.071 51.619 274.289 51.4735C274.652 51.1827 275.089 50.9645 275.525 50.7464L275.816 50.601C275.888 50.5283 275.38 50.6737 275.743 50.601C275.888 50.601 276.034 50.5283 276.252 50.5283C276.107 50.601 275.816 50.5283 276.107 50.5283C276.397 50.5283 275.743 50.4556 275.961 50.4556C276.034 50.4556 276.107 50.5283 276.179 50.5283C276.397 50.6737 275.816 50.2374 276.107 50.4556C276.252 50.601 276.397 50.6737 276.543 50.8191C276.034 50.5283 276.325 50.601 276.47 50.7464C276.616 50.8918 276.688 50.9645 276.761 51.0373C276.834 51.11 277.125 51.4008 277.27 51.619C277.415 51.8371 277.488 51.8371 277.561 51.9825C277.779 52.2734 277.852 52.4188 277.634 52.0552C278.07 52.6369 278.433 53.2913 278.797 53.873C279.742 55.4727 280.615 57.0724 281.415 58.672C283.596 63.0348 285.414 67.1794 287.159 71.4694C289.268 76.4866 291.231 81.5764 293.049 86.739C296.175 95.2463 299.229 103.899 301.265 112.697C301.338 113.061 301.411 113.352 301.483 113.715L301.556 114.152C301.629 114.588 301.483 113.715 301.556 114.297C301.629 114.879 301.701 115.242 301.774 115.751C301.774 115.897 301.774 116.115 301.774 116.26C301.774 116.696 301.92 115.824 301.774 116.333C301.701 116.624 301.919 115.897 301.847 116.115C301.774 116.333 301.774 116.042 301.992 115.969C301.92 116.042 301.847 116.115 301.701 116.26C301.92 115.897 301.92 116.115 301.629 116.26C301.483 116.333 301.338 116.406 301.12 116.478C300.756 116.624 301.265 116.406 301.192 116.478C301.12 116.551 301.047 116.551 300.902 116.551L300.174 116.696C299.011 116.987 297.775 117.133 296.539 117.205C295.812 117.278 295.012 117.278 294.285 117.351C293.848 117.351 293.485 117.424 293.049 117.424C292.83 117.424 293.412 117.424 293.049 117.424H291.812C289.922 117.424 287.959 117.424 285.996 117.351C281.415 117.205 276.834 116.842 272.253 116.406C262.873 115.606 253.639 114.079 244.477 111.825L244.331 111.752L244.041 111.679L243.313 111.534L241.859 111.098C240.914 110.807 240.041 110.516 239.096 110.225C237.569 109.716 236.115 109.134 234.733 108.407L234.224 108.189C234.152 108.116 233.715 107.898 233.933 108.044L233.643 107.898L233.206 107.607C232.77 107.317 232.334 106.953 231.898 106.589C231.752 106.444 232.261 106.953 231.898 106.589C231.825 106.517 231.752 106.444 231.679 106.371L231.461 106.153C231.389 106.08 231.389 106.08 231.316 106.008C231.17 105.862 231.534 106.444 231.461 106.226C231.389 106.008 231.316 105.862 231.17 105.717C231.461 105.935 231.243 106.153 231.243 105.862C231.243 105.79 231.17 105.644 231.17 105.571C231.243 105.717 231.243 106.08 231.243 105.717C231.243 105.644 231.243 105.571 231.243 105.426C231.389 105.79 231.17 105.79 231.243 105.571C231.243 105.499 231.316 105.426 231.316 105.281C231.316 104.99 231.17 105.644 231.316 105.353C231.389 105.281 231.389 105.208 231.389 105.062C231.461 105.062 231.534 104.99 231.534 104.844C231.752 104.481 231.389 105.135 231.534 104.844C232.043 104.045 231.97 103.027 231.316 102.372C230.807 101.863 229.716 101.354 229.134 102.154C225.208 107.753 233.497 111.752 237.569 113.206C246.004 116.333 255.165 117.787 264.109 119.023C273.271 120.332 282.505 120.987 291.812 120.987C294.866 121.059 297.993 120.841 300.974 120.259C301.847 120.114 302.719 119.823 303.519 119.314C304.392 118.732 304.828 117.714 304.683 116.696C304.61 113.933 303.665 111.025 302.937 108.335C301.701 103.899 300.32 99.4637 298.793 95.1009C295.23 84.5576 291.304 74.0871 286.795 63.9073C285.123 60.0536 283.232 56.2725 281.196 52.6369C280.033 50.7464 278.288 47.4016 275.816 47.0381C273.634 46.6745 271.308 49.0013 269.853 50.3101C266.945 53.0732 264.182 55.9817 261.71 59.0356C254.947 66.9613 248.621 75.2505 242.441 83.6851C238.151 89.5021 233.933 95.3918 229.789 101.281L229.134 102.154C228.625 102.954 228.698 103.972 229.353 104.626C229.862 105.208 231.025 105.644 231.534 104.844Z" fill="#32497A"/>
<path d="M268.835 68.8518C267.526 77.4318 266.29 86.0846 265.345 94.6646C265.272 95.1736 268.617 95.3191 268.981 95.3191C269.344 95.3191 272.544 95.6099 272.616 95.1009C273.634 86.4482 274.798 77.8681 276.107 69.288C276.179 68.8518 272.834 68.6336 272.471 68.6336C272.107 68.6336 268.908 68.2701 268.835 68.8518Z" fill="white"/>
<path d="M264.254 99.9726C264.182 100.045 264.036 100.045 263.963 100.118C263.818 100.263 263.745 100.409 263.6 100.554C263.6 100.627 263.527 100.627 263.527 100.7C263.382 100.991 263.309 101.354 263.382 101.645C263.382 101.718 263.382 101.863 263.455 101.936L263.527 102.081C263.6 102.227 263.673 102.372 263.818 102.59C263.818 102.59 263.818 102.663 263.891 102.663C264.036 102.881 264.254 103.027 264.4 103.245L264.472 103.317H264.545C264.763 103.463 264.981 103.681 265.2 103.754C265.49 103.899 265.781 104.117 266.072 104.263C266.363 104.408 266.727 104.554 267.017 104.626H267.09C267.381 104.699 267.745 104.844 268.108 104.917C268.472 104.99 268.69 105.062 269.053 105.062H269.126C269.417 105.062 269.708 105.062 269.999 105.062H270.144C270.362 105.062 270.58 104.99 270.871 104.99H270.944C271.162 104.917 271.453 104.844 271.671 104.699C271.744 104.626 271.816 104.554 271.889 104.481C272.035 104.335 272.18 104.117 272.325 103.972C272.398 103.899 272.398 103.754 272.398 103.681C272.398 103.536 272.398 103.39 272.398 103.245V103.172C272.398 103.099 272.398 103.099 272.398 103.027C272.398 102.954 272.325 102.954 272.325 102.881C272.253 102.663 272.107 102.518 272.035 102.299L271.962 102.227C271.816 102.081 271.598 101.863 271.453 101.718C271.235 101.5 270.944 101.354 270.726 101.136L270.653 101.063C270.508 100.991 270.362 100.918 270.217 100.845C270.071 100.772 269.926 100.7 269.78 100.627C269.635 100.554 269.417 100.482 269.271 100.409C269.126 100.336 268.908 100.263 268.763 100.191C268.472 100.118 268.108 99.9726 267.745 99.8999H267.672C267.381 99.8272 267.017 99.7545 266.799 99.7545C266.508 99.7545 266.218 99.7545 265.854 99.7545C265.636 99.7545 265.418 99.8272 265.127 99.8272H265.054C264.836 99.8999 264.618 99.9726 264.4 100.118C264.182 100.191 264.109 100.409 264.182 100.627C264.182 100.845 264.254 101.063 264.4 101.281C264.618 101.572 264.836 101.79 265.127 101.936C265.49 102.154 265.854 102.372 266.218 102.59L267.09 102.954C267.672 103.172 268.254 103.317 268.908 103.39H269.708C270.071 103.39 270.435 103.317 270.798 103.099H270.871L270.435 103.317C270.508 103.317 270.58 103.245 270.653 103.245L269.999 103.317H270.144H269.344H269.417L268.544 103.172H268.617L267.672 102.881H267.745L266.872 102.518L267.017 102.59L266.218 102.154C266.29 102.154 266.29 102.227 266.363 102.227L265.709 101.79C265.781 101.863 265.781 101.863 265.854 101.936L265.418 101.5C265.49 101.572 265.563 101.645 265.563 101.718L265.345 101.281C265.418 101.427 265.49 101.5 265.49 101.645V101.281C265.49 101.5 265.418 101.645 265.345 101.79L265.563 101.5C265.49 101.645 265.345 101.718 265.127 101.79L265.563 101.572C265.49 101.645 265.345 101.645 265.272 101.645L265.927 101.572H265.636H266.436H266.29L267.163 101.718H267.09L268.035 102.009H267.963L268.835 102.372L268.763 102.299L269.562 102.736L269.49 102.663L270.144 103.099C270.071 103.099 270.071 103.027 270.071 103.027L270.508 103.463C270.435 103.39 270.435 103.317 270.362 103.317L270.58 103.754C270.508 103.608 270.435 103.463 270.435 103.245V103.608C270.435 103.317 270.508 103.099 270.653 102.881L270.435 103.172C270.508 103.027 270.653 102.954 270.798 102.881C271.017 102.808 271.089 102.59 271.017 102.372C271.017 102.154 270.944 101.936 270.798 101.718C270.58 101.427 270.362 101.209 270.071 101.063C269.708 100.772 269.344 100.554 268.981 100.409L268.108 100.045C267.526 99.8272 266.945 99.6818 266.29 99.6091H265.563C264.981 99.6091 264.618 99.6818 264.254 99.9726Z" fill="white"/>
<path d="M237.569 103.972C239.896 100.627 242.295 97.2823 244.695 94.0103C249.566 87.3207 254.511 80.7039 259.673 74.2325C262.073 71.2513 264.472 68.3428 267.017 65.507C268.035 64.4163 269.053 63.2529 270.144 62.235C270.58 61.7987 271.017 61.3624 271.526 60.9989L271.816 60.7807C272.107 60.4899 271.598 60.9262 271.889 60.708C272.18 60.4899 272.253 60.4172 272.471 60.2717C272.834 60.0536 273.125 59.8355 273.489 59.6173L273.707 59.5446C273.998 59.3992 273.343 59.6173 273.634 59.5446C273.78 59.5446 273.925 59.5446 273.998 59.4719C273.998 59.4719 273.561 59.4719 273.852 59.4719C273.998 59.4719 274.143 59.5446 273.634 59.3992C273.489 59.2538 274.07 59.5446 273.634 59.3992C273.707 59.4719 273.852 59.5446 273.998 59.6173C274.143 59.69 273.634 59.2538 273.925 59.5446L274.143 59.7628C274.289 59.9082 274.434 60.0536 274.579 60.2717C274.725 60.4899 275.234 61.1443 274.798 60.5626C275.161 61.0716 275.452 61.5079 275.743 62.0168C276.47 63.2529 277.197 64.5618 277.852 65.8706C279.669 69.4335 281.124 72.851 282.505 76.2685C284.25 80.4131 285.85 84.6304 287.377 88.8477C289.922 95.8281 292.467 102.954 294.212 110.225L294.357 111.025C294.357 111.17 294.43 111.316 294.43 111.461C294.43 111.243 294.503 111.97 294.43 111.461C294.503 111.897 294.575 112.334 294.648 112.77C294.648 112.915 294.648 113.061 294.648 113.206C294.721 112.915 294.721 113.715 294.648 113.206C294.575 113.497 294.866 112.697 294.648 113.061C294.793 112.77 294.866 112.77 294.648 112.988C294.939 112.697 294.939 112.843 294.648 112.915L294.285 113.134C293.994 113.279 294.648 113.061 294.139 113.206L293.557 113.352C292.612 113.57 291.594 113.715 290.649 113.788C289.994 113.861 289.413 113.861 288.758 113.933H287.74H287.45H286.868C285.268 113.933 283.669 113.933 282.069 113.861C278.361 113.715 274.579 113.497 270.871 113.134C263.236 112.479 255.602 111.243 248.185 109.425L247.894 109.353H247.821L247.24 109.207L246.004 108.844C245.276 108.625 244.549 108.407 243.822 108.116C242.586 107.68 241.35 107.244 240.114 106.662C239.896 106.517 239.605 106.444 239.387 106.299L239.023 106.08C238.587 105.862 238.296 105.572 237.86 105.281C237.423 104.99 238.078 105.572 237.932 105.353C237.86 105.281 237.787 105.208 237.714 105.135C237.642 104.99 237.278 104.554 237.496 104.844C237.714 105.135 237.423 104.699 237.351 104.626C237.205 104.408 237.569 105.135 237.423 104.844C237.351 104.772 237.351 104.626 237.351 104.626C237.351 104.626 237.423 105.135 237.423 104.844C237.423 104.772 237.423 104.699 237.423 104.626C237.351 105.063 237.423 104.844 237.423 104.554C237.423 104.263 237.351 104.772 237.423 104.699C237.496 104.626 237.496 104.554 237.496 104.481C237.569 104.408 237.569 104.335 237.569 104.263C237.351 104.554 237.714 103.972 237.569 104.263C238.078 103.463 238.005 102.445 237.351 101.79C236.842 101.281 235.678 100.773 235.169 101.572C231.825 106.371 238.514 109.789 242.15 111.17C249.13 113.788 256.62 114.951 263.963 115.969C271.526 117.06 279.16 117.642 286.868 117.642C289.413 117.714 291.958 117.496 294.503 117.06C296.32 116.696 297.775 115.969 297.775 113.933C297.775 111.679 296.975 109.28 296.393 107.098C295.375 103.39 294.212 99.7545 292.976 96.1189C290.067 87.4662 286.795 78.8134 283.087 70.4515C281.705 67.2521 280.178 64.1255 278.433 61.0716C277.415 59.3992 275.888 56.5634 273.78 56.1999C271.889 55.909 269.999 57.7268 268.69 58.8902C266.29 61.0716 264.036 63.4711 261.928 65.9433C256.329 72.4874 251.166 79.3224 246.004 86.3028C242.441 91.1018 239.023 95.9008 235.533 100.773L235.024 101.5C234.515 102.299 234.588 103.317 235.242 103.972C235.897 104.263 236.987 104.699 237.569 103.972Z" fill="white"/>
<path d="M309.418 84.3103L322.286 75.0317C322.946 74.4516 323.135 73.5001 322.843 72.7309C322.69 72.1838 321.964 71.1394 321.268 71.6234L308.4 80.902C307.74 81.4821 307.551 82.4336 307.843 83.2028C308.062 83.7797 308.721 84.7943 309.418 84.3103Z" fill="#32497A"/>
<path d="M312.099 90.2219L335.341 85.5328C336.05 85.3738 337.108 84.9727 337.009 84.1306C336.909 83.2885 335.692 82.98 335.079 83.1026L311.838 87.7917C311.128 87.9508 310.071 88.3518 310.17 89.1939C310.269 90.0361 311.486 90.3445 312.099 90.2219Z" fill="#32497A"/>
<path d="M231.025 73.2872C230.225 70.3788 228.844 67.6884 226.953 65.2889C226.662 64.998 226.299 64.8526 225.935 64.7799C225.499 64.7072 224.99 64.7072 224.554 64.7799C223.899 64.9253 223.318 65.3616 223.827 66.016C225.572 68.2701 226.808 70.815 227.535 73.5054C227.608 73.7962 228.117 74.0144 228.335 74.0871C228.771 74.2325 229.28 74.3052 229.716 74.3052C230.225 74.3052 231.243 74.0871 231.025 73.2872Z" fill="#32497A"/>
<path d="M222.881 79.2496L198.086 73.4326C197.286 73.1418 196.341 73.5781 196.05 74.3779V74.4506C195.832 75.3959 196.341 76.3411 197.286 76.7047L222.081 82.5217C222.881 82.8125 223.826 82.3762 224.117 81.5764V81.5037C224.335 80.5584 223.754 79.5405 222.881 79.2496Z" fill="#32497A"/>
</g>
<defs>
<clipPath id="clip0_20008_25072">
<rect width="350" height="350" fill="white"/>
</clipPath>
</defs>
</svg>
