<svg xmlns="http://www.w3.org/2000/svg" width="131" height="16" viewBox="0 0 131 16" fill="none">
  <path d="M57.9459 5.30156C89.4476 0.363871 105.335 0.838924 122.896 7.19624L125.863 8.28146C126.706 8.59583 127.396 8.86266 127.917 9.0823C128.403 9.28721 128.856 9.49609 129.123 9.70093C129.194 9.75526 129.312 9.85447 129.41 10.0003C129.501 10.1369 129.686 10.4932 129.511 10.9456C129.348 11.3694 128.993 11.5437 128.862 11.5984C128.705 11.6636 128.557 11.6894 128.463 11.7017C128.11 11.748 127.584 11.7169 126.984 11.6597C126.346 11.5986 125.506 11.4939 124.462 11.3497C123.417 11.2055 122.155 11.0196 120.665 10.7941L115.501 10.0006C108.537 8.92227 103.595 8.45928 97.2879 8.75169C91.7442 9.00871 85.1297 9.84954 75.1544 11.3899L70.6666 12.0935C55.3657 14.5213 40.5261 15.3056 28.5308 14.7809C22.5341 14.5185 17.2297 13.9286 12.9244 13.046C8.91452 12.224 5.68058 11.1304 3.57026 9.74978L3.16364 9.46985C2.81178 9.21486 2.51414 8.9948 2.29332 8.81466C2.18343 8.725 2.07634 8.63291 1.98543 8.54141C1.91306 8.46857 1.77392 8.32228 1.68502 8.12387C1.63846 8.01991 1.56806 7.81872 1.60217 7.55908C1.64213 7.25586 1.80843 6.99704 2.03109 6.82569C2.22053 6.67993 2.41093 6.62654 2.51424 6.60401C2.6272 6.5794 2.72885 6.57267 2.80248 6.57123C3.06349 6.56614 3.38965 6.62082 3.69837 6.68111C4.35914 6.81016 5.40373 7.06412 6.80121 7.3867C8.21517 7.71309 10.0336 8.12073 12.2945 8.57241L13.1678 8.74065C22.1389 10.4118 29.7974 9.86399 54.8477 5.79551L57.9459 5.30156Z" fill="#32497A" stroke="white" stroke-width="2"/>
</svg>