<svg width="18" height="18" viewBox="0 0 18 18" fill="none" xmlns="http://www.w3.org/2000/svg">
<g id="circle-check-solid 1" clip-path="url(#clip0_540_98066)">
<path id="Vector" d="M9 18.0005C11.3869 18.0005 13.6761 17.0523 15.364 15.3644C17.0518 13.6766 18 11.3874 18 9.00049C18 6.61354 17.0518 4.32435 15.364 2.63653C13.6761 0.9487 11.3869 0.000488281 9 0.000488281C6.61305 0.000488281 4.32387 0.9487 2.63604 2.63653C0.948212 4.32435 0 6.61354 0 9.00049C0 11.3874 0.948212 13.6766 2.63604 15.3644C4.32387 17.0523 6.61305 18.0005 9 18.0005ZM12.9727 7.34814L8.47266 11.8481C8.14219 12.1786 7.60781 12.1786 7.28086 11.8481L5.03086 9.59814C4.70039 9.26768 4.70039 8.7333 5.03086 8.40635C5.36133 8.07939 5.8957 8.07588 6.22266 8.40635L7.875 10.0587L11.7773 6.15283C12.1078 5.82236 12.6422 5.82236 12.9691 6.15283C13.2961 6.4833 13.2996 7.01768 12.9691 7.34463L12.9727 7.34814Z" fill="#5DB921"/>
</g>
<defs>
<clipPath id="clip0_540_98066">
<rect width="18" height="18" fill="white" transform="translate(0 0.000488281)"/>
</clipPath>
</defs>
</svg>
